<svg width="1280" height="760" viewBox="0 0 1280 760" fill="none" xmlns="http://www.w3.org/2000/svg">
  <defs>
    <linearGradient id="bg" x1="0" y1="0" x2="1280" y2="760" gradientUnits="userSpaceOnUse">
      <stop stop-color="#E9F2FF"/>
      <stop offset="1" stop-color="#E8FFF7"/>
    </linearGradient>
  </defs>
  <rect width="1280" height="760" fill="url(#bg)"/>

  <rect x="40" y="30" width="1200" height="700" rx="20" fill="#FFFFFF" stroke="#CFE0F9"/>

  <rect x="80" y="90" width="760" height="520" rx="16" fill="#F7FAFF" stroke="#D3E2F8"/>
  <rect x="100" y="110" width="720" height="40" rx="10" fill="#E9F1FF"/>
  <circle cx="125" cy="130" r="8" fill="#4FA1FF"/>
  <circle cx="150" cy="130" r="8" fill="#6ED4A4"/>
  <circle cx="175" cy="130" r="8" fill="#FFC857"/>

  <rect x="120" y="180" width="680" height="390" rx="14" fill="#DCEBFF"/>
  <path d="M120 490L250 380L350 460L500 300L640 420L800 260V570H120V490Z" fill="#9CC2FF"/>
  <path d="M120 540L220 470L340 520L470 390L650 520L800 420V570H120V540Z" fill="#7AB1FF" fill-opacity="0.75"/>

  <rect x="880" y="90" width="320" height="620" rx="16" fill="#F8FBFF" stroke="#D3E2F8"/>
  <rect x="900" y="120" width="280" height="58" rx="12" fill="#1F6FEB"/>
  <text x="1040" y="156" text-anchor="middle" fill="#F2F7FF" font-family="'Segoe UI', Arial, sans-serif" font-size="22" font-weight="700">Создать сцену</text>

  <rect x="900" y="196" width="280" height="58" rx="12" fill="#0F9D78"/>
  <text x="1040" y="232" text-anchor="middle" fill="#F4FFF9" font-family="'Segoe UI', Arial, sans-serif" font-size="22" font-weight="700">Запустить рендер</text>

  <rect x="900" y="272" width="280" height="58" rx="12" fill="#2A7FFF"/>
  <text x="1040" y="308" text-anchor="middle" fill="#F4FAFF" font-family="'Segoe UI', Arial, sans-serif" font-size="22" font-weight="700">Собрать датасет</text>

  <rect x="900" y="362" width="280" height="120" rx="12" fill="#EAF3FF"/>
  <text x="920" y="400" fill="#1D3557" font-family="'Segoe UI', Arial, sans-serif" font-size="20" font-weight="700">Прогресс</text>
  <rect x="920" y="420" width="240" height="14" rx="7" fill="#D2E3FF"/>
  <rect x="920" y="420" width="174" height="14" rx="7" fill="#2A7FFF"/>
  <text x="920" y="456" fill="#53739A" font-family="'Segoe UI', Arial, sans-serif" font-size="18">72% • worker active</text>

  <rect x="900" y="502" width="280" height="188" rx="12" fill="#F2FBF7"/>
  <text x="920" y="540" fill="#1E5F4A" font-family="'Segoe UI', Arial, sans-serif" font-size="20" font-weight="700">Результаты</text>
  <rect x="920" y="556" width="76" height="76" rx="10" fill="#CDEBDF"/>
  <rect x="1008" y="556" width="76" height="76" rx="10" fill="#B8E2D2"/>
  <rect x="1096" y="556" width="76" height="76" rx="10" fill="#A4D9C4"/>
</svg>
